<?xml version="1.0" standalone="no"?>
<!DOCTYPE svg PUBLIC "-//W3C//DTD SVG 20010904//EN"
 "http://www.w3.org/TR/2001/REC-SVG-20010904/DTD/svg10.dtd">
<svg version="1.0" xmlns="http://www.w3.org/2000/svg"
 width="512.000000pt" height="512.000000pt" viewBox="0 0 512.000000 512.000000"
 preserveAspectRatio="xMidYMid meet">
<metadata>
Created by potrace 1.11, written by Peter Selinger 2001-2013
</metadata>
<g transform="translate(0.000000,512.000000) scale(0.100000,-0.100000)"
fill="#000000" stroke="none">
<path d="M2255 5102 c-42 -20 -87 -69 -100 -112 -12 -37 -13 -130 -2 -170 19
-71 80 -127 151 -137 17 -2 36 -5 41 -7 10 -4 12 -122 3 -131 -4 -4 -90 -18
-190 -30 -20 -3 -48 -9 -62 -15 -15 -5 -26 -8 -26 -6 0 2 -33 -5 -72 -15 -40
-11 -80 -21 -88 -23 -8 -2 -53 -17 -100 -34 -422 -147 -824 -443 -1075 -792
-22 -30 -42 -57 -45 -60 -3 -3 -31 -45 -62 -95 -281 -450 -397 -1010 -317
-1537 16 -109 16 -108 34 -183 57 -247 180 -528 329 -750 87 -131 277 -346
392 -445 89 -76 331 -250 348 -250 3 0 31 -15 64 -34 151 -89 468 -204 632
-231 19 -3 60 -10 90 -16 165 -30 599 -33 700 -4 8 2 33 6 55 10 22 3 56 10
75 15 19 5 46 11 60 13 118 21 367 113 499 184 314 169 540 353 745 608 131
162 265 387 326 547 11 29 25 62 30 73 36 77 107 359 124 493 21 159 27 374
14 487 -3 33 -9 85 -12 117 -16 148 -93 441 -143 538 -7 14 -13 29 -13 34 0 4
-29 67 -65 140 -73 147 -140 255 -226 366 l-59 75 75 75 c72 73 76 75 117 72
87 -7 168 95 138 174 -13 33 -203 229 -242 250 -47 25 -90 18 -136 -21 -60
-52 -73 -113 -36 -170 13 -19 8 -27 -56 -90 l-69 -69 -23 20 c-13 12 -34 31
-48 43 -90 81 -290 215 -425 285 -217 113 -515 208 -725 231 -76 9 -102 13
-107 19 -5 4 -7 76 -4 119 1 12 10 17 29 17 42 1 107 34 135 72 53 69 58 208
10 280 -54 81 -61 83 -373 86 -250 2 -279 0 -315 -16z m525 -866 c283 -42 468
-100 690 -214 524 -271 918 -799 1024 -1373 8 -46 18 -97 22 -114 11 -51 13
-406 3 -485 -59 -460 -262 -871 -588 -1189 -42 -40 -92 -85 -111 -100 -19 -14
-43 -34 -54 -43 -75 -68 -290 -194 -437 -256 -151 -64 -268 -97 -489 -139 -99
-18 -330 -23 -475 -9 -318 31 -607 135 -890 320 -473 310 -798 830 -872 1396
-16 126 -9 439 13 565 19 110 34 172 63 265 205 655 733 1156 1396 1325 93 24
197 42 300 52 33 3 61 6 62 7 6 5 303 -2 343 -8z"/>
<path d="M2499 4109 c-1 -2 -2 -291 -3 -642 -1 -425 2 -641 9 -645 5 -4 19 -7
30 -8 158 -10 277 -77 390 -217 l30 -37 525 -3 c486 -2 528 -3 562 -20 77 -39
131 -113 146 -200 8 -42 8 -42 52 -42 58 -1 79 4 75 18 -2 7 -6 55 -9 107 -33
573 -358 1111 -859 1422 -203 127 -436 211 -697 253 -46 7 -250 18 -251 14z"/>
<path d="M2454 2689 c-144 -19 -263 -132 -300 -284 -10 -43 -4 -139 11 -186
17 -50 69 -127 109 -161 35 -31 98 -61 154 -74 167 -39 346 52 409 209 l15 37
548 0 c347 0 559 4 575 10 69 26 86 106 36 162 l-29 33 -561 1 c-308 0 -562 2
-565 5 -2 2 -15 27 -29 54 -71 140 -216 215 -373 194z"/>
</g>
</svg>
